<svg xmlns="http://www.w3.org/2000/svg" width="175.548" height="40.347" viewBox="0 0 175.548 40.347">
  <g id="Gruppe_181" data-name="Gruppe 181" transform="translate(-161.786 -127.224)">
    <path id="Pfad_114" data-name="Pfad 114" d="M10.361,0H52.545V40.347H10.361A10.361,10.361,0,0,1,0,29.985V10.361A10.361,10.361,0,0,1,10.361,0Z" transform="translate(161.786 127.224)" fill="#21ada9"/>
    <g id="Gruppe_165" data-name="Gruppe 165" transform="translate(171.46 137.661)">
      <path id="Pfad_105" data-name="Pfad 105" d="M187.506,164.744a11.621,11.621,0,0,1,.715-4.238,8.763,8.763,0,0,1,1.944-3.064,8.048,8.048,0,0,1,2.862-1.849,9.682,9.682,0,0,1,3.469-.621,9.393,9.393,0,0,1,3.415.621,7.972,7.972,0,0,1,2.821,1.849,8.873,8.873,0,0,1,1.93,3.064,12.913,12.913,0,0,1,0,8.477,8.861,8.861,0,0,1-1.93,3.064,7.952,7.952,0,0,1-2.821,1.849,9.393,9.393,0,0,1-3.415.621,9.682,9.682,0,0,1-3.469-.621,8.029,8.029,0,0,1-2.862-1.849,8.751,8.751,0,0,1-1.944-3.064A11.619,11.619,0,0,1,187.506,164.744Zm2.754,0a10.373,10.373,0,0,0,.432,3.092,6.909,6.909,0,0,0,1.228,2.362,5.377,5.377,0,0,0,1.944,1.5,6.112,6.112,0,0,0,2.578.527,6.025,6.025,0,0,0,2.565-.527,5.416,5.416,0,0,0,1.93-1.5,6.923,6.923,0,0,0,1.228-2.362,11.282,11.282,0,0,0,0-6.183,6.929,6.929,0,0,0-1.228-2.363,5.417,5.417,0,0,0-1.93-1.5,6.026,6.026,0,0,0-2.565-.527,6.113,6.113,0,0,0-2.578.527,5.378,5.378,0,0,0-1.944,1.5,6.914,6.914,0,0,0-1.228,2.363A10.374,10.374,0,0,0,190.26,164.744Z" transform="translate(-187.506 -154.971)" fill="#d3f4f1"/>
      <path id="Pfad_106" data-name="Pfad 106" d="M258.181,174.828q-.594-1-1.363-2.241t-1.661-2.578q-.891-1.336-1.849-2.713t-1.9-2.659q-.946-1.282-1.836-2.416t-1.647-2v14.606h-2.565V156.119h2.079q1.268,1.35,2.713,3.145t2.862,3.7q1.418,1.9,2.673,3.739t2.119,3.267v-13.85h2.565v18.709Z" transform="translate(-223.597 -155.687)" fill="#d3f4f1"/>
      <path id="Pfad_107" data-name="Pfad 107" d="M317.829,156.119q.488.891,1.124,2.2t1.326,2.835q.69,1.526,1.367,3.118l1.272,3q.6-1.4,1.272-3t1.367-3.118q.69-1.525,1.326-2.835t1.124-2.2h3.834q.27,1.863.5,4.171t.405,4.806q.175,2.5.324,5.008t.257,4.724h-4.1q-.081-2.726-.216-5.939t-.405-6.479q-.487,1.133-1.083,2.511t-1.178,2.754q-.582,1.377-1.124,2.632t-.921,2.146h-2.943q-.38-.891-.921-2.146t-1.124-2.632q-.582-1.377-1.178-2.754t-1.084-2.511q-.27,3.267-.4,6.479t-.216,5.939h-4.1q.108-2.213.257-4.724t.324-5.008q.175-2.5.405-4.806t.5-4.171Z" transform="translate(-265.374 -155.687)" fill="#21ada9"/>
      <path id="Pfad_108" data-name="Pfad 108" d="M378.139,174.828V156.119h12.635v3.537H382.35v3.672h7.478v3.456H382.35v4.509h9.044v3.536Z" transform="translate(-306.434 -155.687)" fill="#21ada9"/>
      <path id="Pfad_109" data-name="Pfad 109" d="M438.021,165.1a10.941,10.941,0,0,1-.756,4.239,7.856,7.856,0,0,1-2.146,3,9.145,9.145,0,0,1-3.388,1.782,15.707,15.707,0,0,1-4.482.594q-1.134,0-2.646-.095a21.605,21.605,0,0,1-2.97-.391V156a24.882,24.882,0,0,1,3.037-.364q1.579-.094,2.713-.094a16.4,16.4,0,0,1,4.36.54,8.938,8.938,0,0,1,3.362,1.7,7.571,7.571,0,0,1,2.16,2.97A11.259,11.259,0,0,1,438.021,165.1Zm-12.176,5.94q.3.027.689.041t.931.014a6.209,6.209,0,0,0,4.684-1.593,6.1,6.1,0,0,0,1.525-4.4,5.279,5.279,0,0,0-6.074-5.966q-.432,0-.891.014a8.616,8.616,0,0,0-.864.067Z" transform="translate(-333.569 -155.329)" fill="#21ada9"/>
      <path id="Pfad_110" data-name="Pfad 110" d="M474.532,156.119h4.211v18.709h-4.211Z" transform="translate(-366.57 -155.687)" fill="#21ada9"/>
      <path id="Pfad_111" data-name="Pfad 111" d="M504.4,174.49q-4.563,0-6.952-2.537t-2.389-7.209a11.082,11.082,0,0,1,.729-4.144,8.92,8.92,0,0,1,2-3.078,8.344,8.344,0,0,1,3.023-1.9,10.911,10.911,0,0,1,3.807-.648,12.243,12.243,0,0,1,2.16.175,14.132,14.132,0,0,1,1.7.405,8.368,8.368,0,0,1,1.215.472q.486.243.7.378l-1.215,3.4a10.209,10.209,0,0,0-2.011-.783,9.605,9.605,0,0,0-2.606-.324,5.757,5.757,0,0,0-1.9.324,4.3,4.3,0,0,0-1.647,1.039,5.173,5.173,0,0,0-1.148,1.849,7.755,7.755,0,0,0-.432,2.754,9.816,9.816,0,0,0,.284,2.416,5.117,5.117,0,0,0,.918,1.93,4.4,4.4,0,0,0,1.66,1.282,5.9,5.9,0,0,0,2.484.472,11.341,11.341,0,0,0,1.647-.108,12.076,12.076,0,0,0,1.3-.257,6.687,6.687,0,0,0,1-.337q.432-.188.783-.351l1.161,3.375a9.847,9.847,0,0,1-2.511.972A14.66,14.66,0,0,1,504.4,174.49Z" transform="translate(-379.376 -154.971)" fill="#21ada9"/>
      <path id="Pfad_112" data-name="Pfad 112" d="M550.591,175.206a9.431,9.431,0,0,1-3.4-.553,6.324,6.324,0,0,1-2.362-1.539,6.146,6.146,0,0,1-1.377-2.349,9.64,9.64,0,0,1-.445-3.01V156.119h4.211V167.4a6.325,6.325,0,0,0,.257,1.93,3.55,3.55,0,0,0,.7,1.3,2.5,2.5,0,0,0,1.08.715,4.276,4.276,0,0,0,1.39.216,3.4,3.4,0,0,0,2.5-.945,4.41,4.41,0,0,0,.958-3.213V156.119h4.212v11.636a9.516,9.516,0,0,1-.459,3.023,6.193,6.193,0,0,1-1.4,2.362,6.293,6.293,0,0,1-2.4,1.526A9.963,9.963,0,0,1,550.591,175.206Z" transform="translate(-409.287 -155.687)" fill="#21ada9"/>
      <path id="Pfad_113" data-name="Pfad 113" d="M597.644,170.9a6.06,6.06,0,0,0,1.471-.149,2.709,2.709,0,0,0,.932-.4,1.358,1.358,0,0,0,.486-.607,2.166,2.166,0,0,0,.135-.783,1.809,1.809,0,0,0-.864-1.526,12.374,12.374,0,0,0-2.97-1.309q-.918-.324-1.836-.742a6.747,6.747,0,0,1-1.647-1.053,5.031,5.031,0,0,1-1.188-1.539,4.812,4.812,0,0,1-.459-2.2,5.453,5.453,0,0,1,.486-2.335,4.984,4.984,0,0,1,1.377-1.768,6.3,6.3,0,0,1,2.159-1.121,9.706,9.706,0,0,1,2.862-.391,11.436,11.436,0,0,1,5.535,1.3l-1.215,3.321a11.562,11.562,0,0,0-1.742-.715,7.558,7.558,0,0,0-2.308-.31,4.237,4.237,0,0,0-2.173.418,1.412,1.412,0,0,0-.661,1.283,1.478,1.478,0,0,0,.243.864,2.359,2.359,0,0,0,.688.635,6.025,6.025,0,0,0,1.026.513q.58.23,1.282.472,1.457.54,2.537,1.066a6.785,6.785,0,0,1,1.8,1.228,4.457,4.457,0,0,1,1.066,1.647,6.62,6.62,0,0,1,.351,2.295,4.874,4.874,0,0,1-1.836,4.063,8.863,8.863,0,0,1-5.535,1.444,15.337,15.337,0,0,1-2.241-.149,14.431,14.431,0,0,1-1.768-.364,10.116,10.116,0,0,1-1.323-.459,9.87,9.87,0,0,1-.931-.459l1.188-3.348a10.558,10.558,0,0,0,2.065.823A10.706,10.706,0,0,0,597.644,170.9Z" transform="translate(-439.467 -154.971)" fill="#21ada9"/>
    </g>
    <rect id="Rechteck_172" data-name="Rechteck 172" width="123.003" height="4.778" transform="translate(214.331 162.793)" fill="#d3f4f1"/>
    <rect id="Rechteck_173" data-name="Rechteck 173" width="123.003" height="4.778" transform="translate(214.331 127.224)" fill="#d3f4f1"/>
  </g>
</svg>
