<svg xmlns="http://www.w3.org/2000/svg" width="150" height="50.385" viewBox="0 0 150 50.385">
  <g id="Gruppe_8" data-name="Gruppe 8" transform="translate(-48.829 -112.881)">
    <g id="Gruppe_1" data-name="Gruppe 1" transform="translate(48.829 112.881)">
      <path id="Pfad_1" data-name="Pfad 1" d="M64.1,141H62.332c-.006-.525-.029-1.05-.012-1.573.011-.33-.079-.462-.436-.459-1.852.016-3.7.013-5.556,0a.488.488,0,0,0-.528.371,3.63,3.63,0,1,1-.109-2.748.8.8,0,0,0,.9.593c1.739-.032,3.479-.023,5.219,0,.386,0,.512-.1.511-.5q-.021-5.342,0-10.684c0-.432-.134-.536-.543-.528-1.253.025-2.507,0-3.76.015a1.262,1.262,0,0,1-.995-.417c-.465-.488-.963-.945-1.421-1.439-.252-.272-.406-.3-.713-.028a3.6,3.6,0,1,1,.385-4.821,3.512,3.512,0,0,1,.745,2.3.827.827,0,0,0,.273.695q.831.8,1.627,1.63a.862.862,0,0,0,.692.283c1.047-.014,2.1-.026,3.142,0,.436.012.572-.107.569-.56-.02-2.868-.011-5.735-.009-8.6,0-1.148.493-1.641,1.643-1.641H87.588c1.191,0,1.664.477,1.665,1.676,0,2.83.016,5.661-.012,8.491-.005.537.166.657.662.639,1.009-.035,2.02-.021,3.03,0a.887.887,0,0,0,.738-.308c.275-.306.571-.594.871-.876a2.833,2.833,0,0,0,1.063-2.016,3.509,3.509,0,0,1,3.713-3.1,3.631,3.631,0,0,1,3.383,3.494,3.446,3.446,0,0,1-2.019,3.306,3.4,3.4,0,0,1-3.959-.554c-.349-.294-.515-.283-.8.03-.426.472-.905.9-1.339,1.361a1.357,1.357,0,0,1-1.091.458c-1.253-.021-2.507,0-3.76-.014-.355-.005-.489.086-.487.467q.02,5.4,0,10.8c0,.348.111.447.45.445q2.75-.02,5.5,0a.519.519,0,0,0,.576-.383,3.59,3.59,0,0,1,5.564-1.569,3.771,3.771,0,0,1,.754,4.876,3.573,3.573,0,0,1-4.759,1.087,3.441,3.441,0,0,1-1.512-1.745.634.634,0,0,0-.692-.481q-2.665.042-5.331,0c-.463-.007-.57.149-.552.576.028.635,0,1.274-.009,1.911H87.474c-.006-.093-.016-.187-.017-.28-.018-1.337-.013-1.353-1.272-1.751a.659.659,0,0,1-.534-.757c.017-4.627.012-9.254.011-13.881a9.655,9.655,0,0,0-.1-1.675,8.7,8.7,0,0,0-5.614-6.979,13.191,13.191,0,0,0-5.029-.548,8.573,8.573,0,0,0-7.089,3.312,8.159,8.159,0,0,0-1.928,5.247c.014,4.8-.005,9.591.021,14.387a.8.8,0,0,1-.648.916C64.149,139.8,64.155,139.815,64.1,141Zm35.01-1.131a1.8,1.8,0,1,0,.042-3.593,1.8,1.8,0,1,0-.042,3.593ZM54.235,121a1.8,1.8,0,1,0-1.8,1.772A1.791,1.791,0,0,0,54.235,121Zm44.882,1.771a1.8,1.8,0,1,0-1.781-1.842A1.791,1.791,0,0,0,99.117,122.775ZM50.645,138.028a1.794,1.794,0,1,0,1.864-1.753A1.79,1.79,0,0,0,50.645,138.028Z" transform="translate(-48.829 -112.881)" fill="#c9e0df"/>
      <path id="Pfad_2" data-name="Pfad 2" d="M190.662,156.209c0,2.342-.009,4.684.008,7.026,0,.431-.094.5-.5.35-.964-.352-1.944-.661-2.921-.975a.667.667,0,0,1-.49-.469c-.309-.981-.62-1.962-.971-2.928a.464.464,0,0,1,.273-.67,3.413,3.413,0,0,0,1.914-3.506c-.05-1.253,0-2.511-.013-3.766a4.148,4.148,0,0,0-2.292-3.78c-.352-.194-.578-.333-.423-.8.144-.431-.042-.622-.539-.608-1.109.031-1.11,0-1.364,1.048a4.588,4.588,0,0,1-4.914,3.469c-.275-.024-.348-.127-.344-.379.01-.637-.01-1.275.008-1.911.009-.316-.1-.412-.417-.423-1.386-.049-1.386-.059-1.386,1.3,0,.749.017,1.5-.006,2.248a.8.8,0,0,0,.557.871c.323.109.356.3.352.589-.012.918-.022,1.837,0,2.754a3.061,3.061,0,0,0,1.373,2.564c.886.614.884.612.545,1.656-.243.746-.483,1.493-.711,2.244a.663.663,0,0,1-.473.487q-1.52.488-3.028,1.01c-.311.107-.414.056-.413-.3.012-4.722-.07-9.445.037-14.165a6.741,6.741,0,0,1,5.866-6.527,12.161,12.161,0,0,1,5.651.3,6.973,6.973,0,0,1,4.615,6.48c.006,2.267,0,4.534,0,6.8Z" transform="translate(-155.623 -138.003)" fill="#c9e0df"/>
      <path id="Pfad_3" data-name="Pfad 3" d="M211.74,190.958c0,.693,0,1.386,0,2.079a1.387,1.387,0,0,1-.686,1.268c-.715.441-1.437.872-2.158,1.3a1.345,1.345,0,0,1-1.48.01c-.736-.443-1.476-.88-2.205-1.333a1.3,1.3,0,0,1-.65-1.116c-.015-.955,0-1.91-.009-2.865,0-.281.082-.381.377-.406a6.181,6.181,0,0,0,5-3.047c.209-.341.375-.344.656-.155a2.462,2.462,0,0,1,1.144,2.07C211.756,189.5,211.739,190.228,211.74,190.958Z" transform="translate(-181.192 -175.517)" fill="#c9e0df"/>
      <path id="Pfad_4" data-name="Pfad 4" d="M216.755,261.4c.029.175-.1.277-.192.388-.707.893-1.427,1.775-2.13,2.671-.167.213-.257.257-.446.014-.709-.914-1.437-1.814-2.165-2.714a.51.51,0,0,1-.1-.556c.3-.845.577-1.7.847-2.552.091-.287.2-.387.515-.257a3.028,3.028,0,0,0,2.288,0c.134-.051.309-.17.382.037C216.1,259.411,216.423,260.4,216.755,261.4Z" transform="translate(-187.249 -236.491)" fill="#c9e0df"/>
    </g>
    <g id="Gruppe_3" data-name="Gruppe 3" transform="translate(48.86 139.211)">
      <g id="Gruppe_2" data-name="Gruppe 2" transform="translate(0)">
        <path id="Pfad_5" data-name="Pfad 5" d="M89.414,290.637c.005,2.867.021,5.734,0,8.6,0,.478.093.651.609.633,1.177-.042,2.356.009,3.534-.023a1.544,1.544,0,0,1,1.282.544c.414.458.882.866,1.3,1.321.254.278.409.3.711.022a3.54,3.54,0,0,1,5.391.565,3.443,3.443,0,0,1,.21,3.789,3.366,3.366,0,0,1-3.55,1.848,3.422,3.422,0,0,1-2.948-2.275,1.866,1.866,0,0,1-.231-.971c.114-.683-.294-1.063-.669-1.549a3.542,3.542,0,0,0-3.627-1.5,6.792,6.792,0,0,1-1.512,0c-.408-.027-.5.133-.494.514.015,2.867.01,5.734.01,8.6,0,1.221-.475,1.693-1.705,1.693H64.164c-1.191,0-1.675-.482-1.675-1.667,0-2.867-.006-5.734.011-8.6,0-.411-.094-.554-.526-.542-1.065.031-2.132.016-3.2.006a.838.838,0,0,0-.648.249,18.845,18.845,0,0,1-1.86,1.781c-.383.283-.091.7-.119,1.031a3.313,3.313,0,0,1-2.008,2.871,3.353,3.353,0,0,1-3.56-.3,3.53,3.53,0,0,1-1.371-4,3.614,3.614,0,0,1,3.53-2.521,3.464,3.464,0,0,1,2.368,1.007c.258.253.4.219.629-.021.434-.465.913-.889,1.34-1.36a1.545,1.545,0,0,1,1.282-.544c1.2.032,2.394-.013,3.59.021.464.013.552-.15.551-.575-.011-3.035,0-6.071.007-9.106h1.764c.029.72.029.718.741.482.934-.309,1.869-.616,2.864-.944,0,.859-.05,1.648.015,2.428a1.936,1.936,0,0,1-.722,1.757,7.643,7.643,0,0,0-1.569,1.65,5.4,5.4,0,0,0-.412,2.957c-.013,1.408,0,1.4,1.391,1.347.326-.011.415-.122.408-.429-.017-.712,0-1.424-.007-2.136a1.449,1.449,0,0,1,.417-1.068c.363-.378.748-.735,1.1-1.119.2-.211.343-.231.545-.008.289.318.593.626.912.914a1.785,1.785,0,0,1,.621,1.495c-.031.654.005,1.312-.009,1.967-.013.581.443.408.671.353.378-.091,1.023.407,1.111-.353.083-.721.01-1.46.021-2.19a3.258,3.258,0,0,0-1-2.418c-.473-.48-.945-.961-1.431-1.428a.806.806,0,0,1-.267-.642c.013-1.087.018-2.174,0-3.26-.005-.312.082-.477.389-.565a15.169,15.169,0,0,0,1.542-.509.574.574,0,0,1,.768.218c.914,1.161,1.841,2.311,2.761,3.467.548.688,1.107.693,1.649.013.92-1.156,1.846-2.307,2.761-3.467a.572.572,0,0,1,.763-.237,15.848,15.848,0,0,0,1.542.51.478.478,0,0,1,.406.553c-.026.861-.045,1.726.006,2.585a.77.77,0,0,1-.607.894,3.092,3.092,0,0,0-1.934,2.158,3.6,3.6,0,1,0,4.754-2.262c-.205-.084-.434-.1-.429-.42.012-.9,0-1.791,0-2.739.237.07.413.117.587.174q1.3.43,2.6.864c.177.059.369.178.413-.143ZM75.954,310.648c1.645,0,3.289.006,4.934,0a3.035,3.035,0,0,0,2.3-1,4.051,4.051,0,0,0,.738-3.8,3.027,3.027,0,0,0-2.89-2.384c-3.383-.02-6.766-.033-10.148.009a2.887,2.887,0,0,0-2.524,1.389,4.436,4.436,0,0,0-.481,2.532,3.146,3.146,0,0,0,3.253,3.255C72.74,310.653,74.347,310.649,75.954,310.648ZM50.82,304.355a1.794,1.794,0,1,0,1.818-1.8A1.793,1.793,0,0,0,50.82,304.355Zm46.693.038a1.794,1.794,0,1,0,1.784-1.837A1.791,1.791,0,0,0,97.513,304.393Z" transform="translate(-49.035 -288.4)" fill="#21ada9"/>
        <path id="Pfad_6" data-name="Pfad 6" d="M264.45,330.551a1.794,1.794,0,1,1,1.727,1.836A1.794,1.794,0,0,1,264.45,330.551Z" transform="translate(-232.135 -322.733)" fill="#21ada9"/>
        <path id="Pfad_7" data-name="Pfad 7" d="M192.872,404.333q-2.326,0-4.652,0c-1.141,0-1.625-.5-1.628-1.654,0-.206-.009-.412,0-.618a1.332,1.332,0,0,1,1.332-1.322c3.307-.015,6.614-.008,9.921,0a1.184,1.184,0,0,1,.936.435,2.339,2.339,0,0,1,.24,2.342c-.207.663-.823.836-1.5.827C195.974,404.319,194.423,404.333,192.872,404.333Z" transform="translate(-165.954 -383.879)" fill="#21ada9"/>
      </g>
    </g>
    <g id="Gruppe_7" data-name="Gruppe 7" transform="translate(108.578 113.635)">
      <g id="Gruppe_4" data-name="Gruppe 4" transform="translate(0 0)">
        <path id="Pfad_8" data-name="Pfad 8" d="M453.254,158.08a5.948,5.948,0,0,0,1.441-.146,2.646,2.646,0,0,0,.912-.4,1.334,1.334,0,0,0,.476-.595,2.121,2.121,0,0,0,.132-.767,1.771,1.771,0,0,0-.846-1.494,12.1,12.1,0,0,0-2.908-1.282q-.9-.317-1.8-.727a6.622,6.622,0,0,1-1.613-1.031,4.929,4.929,0,0,1-1.163-1.507,4.717,4.717,0,0,1-.449-2.155,5.338,5.338,0,0,1,.476-2.287,4.883,4.883,0,0,1,1.348-1.731,6.166,6.166,0,0,1,2.115-1.1,9.5,9.5,0,0,1,2.8-.383,11.2,11.2,0,0,1,5.419,1.269L458.409,147a11.314,11.314,0,0,0-1.705-.7,7.394,7.394,0,0,0-2.26-.3,4.149,4.149,0,0,0-2.128.41,1.383,1.383,0,0,0-.648,1.256,1.449,1.449,0,0,0,.238.846,2.313,2.313,0,0,0,.674.621,5.893,5.893,0,0,0,1,.5q.568.225,1.256.463,1.428.529,2.485,1.044a6.642,6.642,0,0,1,1.758,1.2,4.365,4.365,0,0,1,1.044,1.613,6.487,6.487,0,0,1,.344,2.247,4.772,4.772,0,0,1-1.8,3.979,8.675,8.675,0,0,1-5.419,1.414,15.049,15.049,0,0,1-2.194-.145,14.226,14.226,0,0,1-1.731-.357,9.9,9.9,0,0,1-1.3-.449,9.717,9.717,0,0,1-.912-.449l1.163-3.278a10.333,10.333,0,0,0,2.022.806A10.488,10.488,0,0,0,453.254,158.08Z" transform="translate(-447.121 -142.483)" fill="#21ada9"/>
        <path id="Pfad_9" data-name="Pfad 9" d="M530.976,144.558q.477.872,1.1,2.155t1.3,2.776q.676,1.494,1.339,3.053l1.246,2.934q.583-1.374,1.246-2.934t1.338-3.053q.676-1.493,1.3-2.776t1.1-2.155H544.7q.264,1.824.489,4.084t.4,4.706q.172,2.446.317,4.9t.251,4.626h-4.018q-.079-2.67-.211-5.816t-.4-6.345q-.478,1.11-1.061,2.458t-1.154,2.7q-.57,1.348-1.1,2.578t-.9,2.1h-2.882q-.372-.872-.9-2.1t-1.1-2.578q-.57-1.348-1.153-2.7t-1.061-2.458q-.265,3.2-.4,6.345t-.212,5.816h-4.018q.105-2.167.251-4.626t.317-4.9q.172-2.445.4-4.706t.489-4.084Z" transform="translate(-509.59 -144.135)" fill="#21ada9"/>
        <path id="Pfad_10" data-name="Pfad 10" d="M649.575,162.878q-.306-.955-.658-1.961l-.7-2h-7.155l-.7,2.01q-.349,1.007-.649,1.956h-4.283q1.034-2.96,1.962-5.472t1.816-4.732q.888-2.221,1.75-4.216t1.79-3.9h3.909q.9,1.9,1.779,3.9t1.766,4.216q.89,2.221,1.819,4.732t1.965,5.472Zm-4.955-14.17q-.138.4-.4,1.086t-.605,1.587q-.34.9-.759,1.983t-.852,2.27h5.239q-.421-1.191-.815-2.277t-.749-1.986q-.355-.9-.623-1.587T644.62,148.708Z" transform="translate(-597.05 -144.135)" fill="#21ada9"/>
        <path id="Pfad_11" data-name="Pfad 11" d="M743.387,143.52a11.355,11.355,0,0,1,6.318,1.467,5.1,5.1,0,0,1,2.194,4.56,5.155,5.155,0,0,1-.885,3.133,5.834,5.834,0,0,1-2.551,1.89q.555.688,1.163,1.573t1.2,1.851q.595.965,1.15,2.009t1.031,2.049H748.4q-.5-.9-1.022-1.824t-1.061-1.8q-.544-.872-1.075-1.652t-1.061-1.414h-2.036v6.688h-4.124V144a23.418,23.418,0,0,1,2.789-.37Q742.251,143.521,743.387,143.52Zm.238,3.516q-.45,0-.806.026l-.674.053v4.97h1.163a7.025,7.025,0,0,0,3.331-.582,2.1,2.1,0,0,0,1-1.983,2.017,2.017,0,0,0-1.018-1.917A6.3,6.3,0,0,0,743.625,147.036Z" transform="translate(-678.726 -143.309)" fill="#21ada9"/>
        <path id="Pfad_12" data-name="Pfad 12" d="M830.622,144.558v3.516H825.1v14.8h-4.124v-14.8h-5.525v-3.516Z" transform="translate(-740.371 -144.135)" fill="#21ada9"/>
      </g>
      <g id="Gruppe_5" data-name="Gruppe 5" transform="translate(1.683 24.941)">
        <path id="Pfad_13" data-name="Pfad 13" d="M475.568,277.925a13.486,13.486,0,0,1-.931,5.222,9.674,9.674,0,0,1-2.645,3.692,11.274,11.274,0,0,1-4.175,2.2,19.373,19.373,0,0,1-5.521.731q-1.4,0-3.26-.116a26.653,26.653,0,0,1-3.659-.482V266.715a30.72,30.72,0,0,1,3.742-.449q1.946-.116,3.343-.116a20.193,20.193,0,0,1,5.372.665,11,11,0,0,1,4.141,2.1,9.32,9.32,0,0,1,2.661,3.659A13.876,13.876,0,0,1,475.568,277.925Zm-15,7.318q.366.033.848.05t1.147.017q3.892,0,5.771-1.962a7.517,7.517,0,0,0,1.879-5.422,7.611,7.611,0,0,0-1.8-5.488q-1.8-1.862-5.688-1.863-.533,0-1.1.017a10.47,10.47,0,0,0-1.065.083Z" transform="translate(-455.377 -265.884)" fill="#21ada9"/>
        <path id="Pfad_14" data-name="Pfad 14" d="M593.7,276.885a14.192,14.192,0,0,1-.882,5.206,10.707,10.707,0,0,1-2.411,3.758,9.9,9.9,0,0,1-3.642,2.279,13.241,13.241,0,0,1-4.54.765,12.9,12.9,0,0,1-4.457-.765,10.241,10.241,0,0,1-3.659-2.279,10.648,10.648,0,0,1-2.461-3.758,13.952,13.952,0,0,1-.9-5.206,13.5,13.5,0,0,1,.931-5.206,11.086,11.086,0,0,1,2.512-3.775,10.331,10.331,0,0,1,3.659-2.3,12.566,12.566,0,0,1,4.374-.765,12.9,12.9,0,0,1,4.457.765,10.15,10.15,0,0,1,3.659,2.3,10.828,10.828,0,0,1,2.461,3.775A13.949,13.949,0,0,1,593.7,276.885Zm-17.6,0a10.461,10.461,0,0,0,.416,3.06,6.978,6.978,0,0,0,1.2,2.345,5.288,5.288,0,0,0,1.912,1.513,6.55,6.55,0,0,0,5.172,0,5.258,5.258,0,0,0,1.929-1.513,6.993,6.993,0,0,0,1.2-2.345,10.482,10.482,0,0,0,.416-3.06,10.658,10.658,0,0,0-.416-3.077,6.989,6.989,0,0,0-1.2-2.362,5.271,5.271,0,0,0-1.929-1.513,6.061,6.061,0,0,0-2.578-.532,5.87,5.87,0,0,0-2.595.549,5.465,5.465,0,0,0-1.912,1.53,6.973,6.973,0,0,0-1.2,2.362A10.512,10.512,0,0,0,576.105,276.885Z" transform="translate(-547.233 -264.844)" fill="#21ada9"/>
        <path id="Pfad_15" data-name="Pfad 15" d="M711.177,288.893q-5.622,0-8.565-3.127t-2.944-8.881a13.663,13.663,0,0,1,.9-5.106,11,11,0,0,1,2.461-3.792,10.29,10.29,0,0,1,3.726-2.345,13.44,13.44,0,0,1,4.69-.8,15.043,15.043,0,0,1,2.661.216,17.4,17.4,0,0,1,2.1.5,10.375,10.375,0,0,1,1.5.582q.6.3.865.466l-1.5,4.191a12.608,12.608,0,0,0-2.478-.964,11.833,11.833,0,0,0-3.21-.4,7.094,7.094,0,0,0-2.345.4A5.3,5.3,0,0,0,707,271.114a6.379,6.379,0,0,0-1.414,2.278,9.55,9.55,0,0,0-.532,3.393,12.111,12.111,0,0,0,.349,2.977,6.31,6.31,0,0,0,1.131,2.378,5.423,5.423,0,0,0,2.046,1.58,7.28,7.28,0,0,0,3.06.582,13.926,13.926,0,0,0,2.029-.133,14.888,14.888,0,0,0,1.6-.316,8.3,8.3,0,0,0,1.231-.416q.531-.232.965-.432l1.43,4.158a12.145,12.145,0,0,1-3.094,1.2A18.058,18.058,0,0,1,711.177,288.893Z" transform="translate(-649.874 -264.844)" fill="#21ada9"/>
        <path id="Pfad_16" data-name="Pfad 16" d="M813.782,284.469a7.479,7.479,0,0,0,1.813-.183,3.326,3.326,0,0,0,1.147-.5,1.672,1.672,0,0,0,.6-.749,2.668,2.668,0,0,0,.166-.965,2.229,2.229,0,0,0-1.065-1.879,15.237,15.237,0,0,0-3.659-1.613q-1.131-.4-2.262-.915a8.32,8.32,0,0,1-2.029-1.3,6.193,6.193,0,0,1-1.463-1.9,5.93,5.93,0,0,1-.566-2.711,6.717,6.717,0,0,1,.6-2.877,6.145,6.145,0,0,1,1.7-2.178,7.763,7.763,0,0,1,2.661-1.381,11.963,11.963,0,0,1,3.526-.482,14.1,14.1,0,0,1,6.819,1.6l-1.5,4.091a14.226,14.226,0,0,0-2.145-.881,9.3,9.3,0,0,0-2.844-.383,5.217,5.217,0,0,0-2.678.516,1.74,1.74,0,0,0-.815,1.58,1.822,1.822,0,0,0,.3,1.064,2.905,2.905,0,0,0,.848.782,7.431,7.431,0,0,0,1.264.632q.715.283,1.58.582,1.8.666,3.127,1.314a8.366,8.366,0,0,1,2.212,1.513,5.493,5.493,0,0,1,1.314,2.029,8.16,8.16,0,0,1,.432,2.827,6,6,0,0,1-2.262,5.006q-2.262,1.78-6.819,1.78a18.93,18.93,0,0,1-2.761-.183,17.826,17.826,0,0,1-2.179-.449,12.455,12.455,0,0,1-1.63-.565,12.221,12.221,0,0,1-1.148-.566l1.463-4.124a13.012,13.012,0,0,0,2.545,1.015A13.2,13.2,0,0,0,813.782,284.469Z" transform="translate(-734.584 -264.844)" fill="#21ada9"/>
      </g>
    </g>
  </g>
</svg>
