<svg xmlns="http://www.w3.org/2000/svg" width="10.139" height="12.169" viewBox="0 0 10.139 12.169">
  <g id="Icon_ionic-logo-apple" data-name="Icon ionic-logo-apple" transform="translate(0 0)">
    <path id="Pfad_75" data-name="Pfad 75" d="M14.277,10.821c-1.065,0-1.514.523-2.256.523-.76,0-1.34-.52-2.262-.52a3.074,3.074,0,0,0-2.478,1.533c-.859,1.362-.713,3.929.678,6.115.5.783,1.163,1.66,2.034,1.67h.016c.757,0,.982-.51,2.024-.516h.016c1.027,0,1.232.513,1.986.513h.016c.871-.01,1.571-.982,2.069-1.762a8.666,8.666,0,0,0,.767-1.476,2.711,2.711,0,0,1-.345-4.844,2.979,2.979,0,0,0-2.265-1.236Z" transform="translate(-6.748 -7.973)" fill="#525f60"/>
    <path id="Pfad_76" data-name="Pfad 76" d="M19.981,4.5a2.771,2.771,0,0,0-1.806,1,2.52,2.52,0,0,0-.589,1.926h.051A2.352,2.352,0,0,0,19.4,6.474,2.7,2.7,0,0,0,19.981,4.5Z" transform="translate(-12.687 -4.5)" fill="#525f60"/>
  </g>
</svg>
