<svg id="Google__G__Logo" data-name="Google_&quot;G&quot;_Logo" xmlns="http://www.w3.org/2000/svg" width="9.871" height="9.871" viewBox="0 0 9.871 9.871">
  <path id="Pfad_77" data-name="Pfad 77" d="M16.738,11.01a5.671,5.671,0,0,0-.09-1.01H12v1.911h2.656a2.276,2.276,0,0,1-.992,1.485V14.64h1.6a4.822,4.822,0,0,0,1.472-3.63Z" transform="translate(-7.064 -5.962)" fill="#4285f4"/>
  <path id="Pfad_78" data-name="Pfad 78" d="M6.586,18.093A4.711,4.711,0,0,0,9.853,16.9l-1.6-1.243A2.967,2.967,0,0,1,3.822,14.1H2.18v1.274A4.931,4.931,0,0,0,6.586,18.093Z" transform="translate(-1.651 -8.222)" fill="#34a853"/>
  <path id="Pfad_79" data-name="Pfad 79" d="M3.172,10.22a2.878,2.878,0,0,1,0-1.876V7.07H1.529a4.886,4.886,0,0,0,0,4.424l1.279-1Z" transform="translate(-1 -4.346)" fill="#fbbc05"/>
  <path id="Pfad_80" data-name="Pfad 80" d="M6.586,2.965A2.693,2.693,0,0,1,8.475,3.7L9.889,2.288A4.735,4.735,0,0,0,6.586,1,4.927,4.927,0,0,0,2.18,3.724L3.822,5A2.947,2.947,0,0,1,6.586,2.965Z" transform="translate(-1.651 -1)" fill="#ea4335"/>
  <path id="Pfad_81" data-name="Pfad 81" d="M1,1h9.871v9.871H1Z" transform="translate(-1 -1)" fill="none"/>
</svg>
